# xmcd CD database file
#
# Track frame offsets:
#	150
#	7534
#	29424
#	47917
#	68117
#	85042
#	105092
#	125498
#	143960
#	161512
#	182829
#	206648
#	216398
#
# Disc length: 3144 seconds
#
# Revision: 3
# Processed by: cddbd v1.5.1PL0 Copyright (c) Steve Scherf et al.
# Submitted via: CDex 1.50beta9
#
DISCID=ab0c460d
DTITLE=JHETT - JHETT (Disc-1)
DYEAR=2005
DGENRE=R&B
TTITLE0=Intro feat. ia
TTITLE1=Get Ready -Nice 2 Remember- feat. Sowelu and BIG-O
TTITLE2=Do or Die feat. 安室奈美恵
TTITLE3=Oh Boy feat. Heartsdales
TTITLE4=Sweetest feat. Lisa
TTITLE5=Just Go feat. Koda Kumi
TTITLE6=Heart Breaker feat. Rinko Urashima
TTITLE7=Leave It To Fate feat. Lori Fine (Coldfeet)
TTITLE8=Get Out feat. Yuki (Yellow Generation)
TTITLE9=Call U Every Nite feat. Michico
TTITLE10=Everything Inside of Me feat. Lena Park
TTITLE11=Outro feat. ia
TTITLE12=Uh...Uh... feat. AI - SUITE CHIC Ver.2K5
EXTD=YEAR: 2005
EXTT0=
EXTT1=
EXTT2=
EXTT3=
EXTT4=
EXTT5=
EXTT6=
EXTT7=
EXTT8=
EXTT9=
EXTT10=
EXTT11=
EXTT12=
PLAYORDER=
